<svg version="1.1" id="Layer_1" xmlns="http://www.w3.org/2000/svg" xmlns:xlink="http://www.w3.org/1999/xlink" x="0px" y="0px"
	 width="100%" viewBox="0 0 336 336" enable-background="new 0 0 336 336" xml:space="preserve">
<path fill="#133B4F" opacity="1.000000" stroke="none" 
	d="
M306.192932,158.806335 
	C300.563629,153.097519 295.104218,147.714584 289.842896,142.144516 
	C287.987549,140.180298 286.481720,139.370880 283.877594,140.920456 
	C250.240921,160.936111 216.558258,180.874466 182.894867,200.845261 
	C182.483185,201.089478 182.171646,201.502472 181.489426,202.138870 
	C183.336639,205.298798 186.227188,207.559738 188.729843,210.119263 
	C194.087601,215.598785 199.676834,220.859726 204.877136,226.482254 
	C207.643417,229.473129 209.870438,229.727142 213.417587,227.601547 
	C240.995041,211.076202 268.693878,194.753387 296.355316,178.368164 
	C297.645569,177.603882 298.956146,176.872009 300.223724,176.071930 
	C302.557098,174.599167 304.759918,174.595398 306.240448,177.098953 
	C307.804840,179.744400 306.215668,181.471909 303.997864,182.792572 
	C301.135864,184.496857 298.380524,186.433746 295.373657,187.826675 
	C292.158997,189.315872 291.231171,191.529007 291.262604,194.941376 
	C291.402466,210.104172 291.180573,225.270813 291.382294,240.432175 
	C291.438110,244.626923 290.010132,247.126953 286.395813,249.252945 
	C250.502106,270.365936 214.686584,291.611908 178.879333,312.871460 
	C176.254059,314.430145 173.892838,314.838074 170.897095,313.683624 
	C136.398376,300.389130 101.861320,287.193878 67.305450,274.048492 
	C64.021454,272.799194 62.485294,270.815582 62.757786,267.288940 
	C63.141533,262.322510 61.146976,256.805389 66.881889,252.958649 
	C62.771286,250.346771 62.660301,246.655258 62.730927,242.735992 
	C62.875015,234.739990 62.566906,226.732468 62.844711,218.743591 
	C62.987511,214.637131 61.765587,212.500916 57.684723,211.065231 
	C46.534714,207.142532 35.559223,202.720642 24.537996,198.436310 
	C18.602436,196.128952 18.126146,193.202606 23.122278,189.262421 
	C34.240494,180.494064 45.347229,171.706268 56.648891,163.178528 
	C59.790817,160.807785 59.950459,159.280487 57.082836,156.674759 
	C48.329720,148.721039 39.681992,140.648987 31.096188,132.514343 
	C25.411287,127.128159 25.549641,125.726776 32.113544,121.832779 
	C57.326237,106.875504 82.529495,91.900650 107.870674,77.163460 
	C111.661873,74.958679 112.789047,72.950478 110.805450,68.942429 
	C107.071342,61.397320 106.184029,53.677971 110.535759,45.984322 
	C115.559166,37.103195 125.212540,32.910088 135.263199,35.205139 
	C144.879166,37.400925 151.785828,45.439384 152.184814,55.526871 
	C152.402100,61.020374 154.085663,65.335625 158.413239,68.983253 
	C164.265274,73.915825 169.844681,79.208618 175.198486,84.681961 
	C178.518677,88.076271 181.045914,87.735992 184.470108,84.882042 
	C194.704010,76.352448 205.251556,68.198479 215.460266,59.639774 
	C218.861450,56.788326 221.948227,56.453857 225.969116,58.002274 
	C259.847260,71.048492 293.780945,83.950401 327.685883,96.927223 
	C333.434479,99.127441 333.902588,102.390350 329.030457,106.311234 
	C318.133148,115.080963 307.180573,123.781982 296.272247,132.538010 
	C295.390503,133.245758 294.291809,133.835663 292.922791,136.244736 
	C298.637390,141.510712 304.421906,146.703400 310.043671,152.066711 
	C314.261047,156.090179 318.349670,160.257248 322.344360,164.502731 
	C325.443359,167.796341 325.071014,170.120499 321.231384,172.548935 
	C318.559174,174.239029 315.805176,175.806488 313.034271,177.331650 
	C310.994446,178.454437 309.110779,178.109818 307.809479,176.111694 
	C306.391052,173.933640 307.567810,172.381897 309.264221,170.994034 
	C310.655090,169.856155 312.543274,169.273911 313.434143,167.215942 
	C311.903870,163.912262 308.728943,161.849304 306.192932,158.806335 
M80.657028,211.762344 
	C94.509697,217.029144 108.498787,221.971817 122.149940,227.717392 
	C127.857941,230.119812 132.404053,230.665146 136.779877,225.839645 
	C137.314423,225.250153 138.150726,224.899414 138.897675,224.544189 
	C140.768112,223.654678 142.572861,223.831528 143.823898,225.536194 
	C145.114761,227.295151 144.576843,229.110016 143.076874,230.458878 
	C141.101196,232.235535 138.834351,233.693527 136.897964,235.507629 
	C133.571884,238.623627 130.222809,238.837387 125.964035,237.148361 
	C109.867325,230.764389 93.641136,224.706024 77.447083,218.568878 
	C71.839386,216.443695 70.254974,217.192184 70.432747,223.165314 
	C70.797325,235.414917 69.435623,247.619461 70.077988,259.891663 
	C70.378250,265.627899 72.772896,268.074066 77.705734,269.926575 
	C104.986046,280.171661 132.175568,290.658325 159.414734,301.013458 
	C162.759674,302.285065 166.008514,304.003448 169.735596,304.235992 
	C171.018311,302.185669 170.740311,300.144531 170.752441,298.194092 
	C170.804321,289.861938 170.780106,281.529297 170.805191,273.196930 
	C170.812607,270.729706 171.188583,268.126160 174.234879,268.046875 
	C177.419983,267.964020 178.257690,270.381165 178.251709,273.208405 
	C178.234772,281.207489 178.225052,289.207214 178.317780,297.205444 
	C178.337875,298.939056 177.720428,300.903229 179.341370,302.340271 
	C181.223938,302.698181 182.592407,301.626923 183.995178,300.800049 
	C215.995026,281.937164 247.967484,263.027710 280.002045,244.224014 
	C282.824707,242.567184 283.794861,240.538422 283.758942,237.347549 
	C283.618195,224.850433 283.721039,212.350693 283.683746,199.852081 
	C283.679962,198.592987 284.121887,197.166687 282.792725,195.988022 
	C281.097382,195.892807 279.815247,197.025314 278.413391,197.852875 
	C258.619171,209.538101 238.913284,221.376648 218.995911,232.848068 
	C206.778870,239.884491 209.743835,241.934570 197.802261,229.696198 
	C191.817444,223.562607 185.672592,217.585175 179.465027,211.402573 
	C177.754745,213.729950 178.338394,215.614914 178.328064,217.364792 
	C178.263214,228.363281 178.285080,239.362289 178.272324,250.361115 
	C178.269180,253.076904 177.574936,255.813751 174.467987,255.811707 
	C171.293121,255.809616 170.789200,253.019836 170.792511,250.320190 
	C170.804108,240.821182 170.791443,231.322128 170.788757,221.823105 
	C170.787689,218.057541 170.788574,214.291977 170.788574,209.879669 
	C166.318649,211.943054 163.462296,214.709366 160.345596,217.100525 
	C158.307297,218.664307 155.929550,220.331985 153.771133,217.720001 
	C151.448761,214.909637 153.582870,212.885666 155.721817,211.039169 
	C159.021530,208.190628 162.965759,206.069199 165.889969,202.558746 
	C165.148483,202.070587 164.770065,201.713104 164.320663,201.541061 
	C133.374039,189.693893 102.397934,177.922943 71.504250,165.939499 
	C68.167709,164.645264 65.958290,165.248611 63.385708,167.325348 
	C54.961193,174.126068 46.391499,180.746643 37.899685,187.464371 
	C32.888233,191.428848 33.054157,193.281128 38.936687,195.607361 
	C52.563972,200.996201 66.258095,206.216019 80.657028,211.762344 
M204.685638,78.197411 
	C199.196136,82.673698 193.706650,87.149979 188.328033,91.535851 
	C189.658981,94.312027 191.847977,94.418816 193.630219,95.124466 
	C200.596573,97.882660 207.598022,100.552071 214.571503,103.292435 
	C216.880142,104.199654 219.071365,105.512566 217.834488,108.429008 
	C216.676147,111.160301 214.268417,110.968407 211.859787,110.045509 
	C205.797256,107.722557 199.756546,105.337700 193.648834,103.139557 
	C190.429199,101.980827 187.381958,100.106667 183.623810,100.130524 
	C183.623810,130.463791 183.623810,160.582596 183.623810,191.565292 
	C215.334137,172.851089 246.239731,154.611786 277.079224,136.411514 
	C276.141998,134.283035 274.697174,134.084702 273.518799,133.624878 
	C265.453979,130.477753 257.359375,127.406898 249.274506,124.311165 
	C243.055084,121.929741 236.824493,119.576920 230.622604,117.150681 
	C228.422943,116.290154 226.699280,114.896179 227.820267,112.221954 
	C228.850769,109.763573 230.916306,109.439667 233.250916,110.250679 
	C234.193420,110.578102 235.105896,110.990959 236.039429,111.345459 
	C251.294373,117.138397 266.567841,122.883286 281.790985,128.758636 
	C284.654449,129.863770 287.172974,130.202927 289.711945,128.114822 
	C298.586304,120.816376 307.508148,113.575706 316.390350,106.286781 
	C319.335266,103.870132 319.004059,101.924278 315.428711,100.545929 
	C310.302429,98.569687 305.191162,96.554131 300.058014,94.596008 
	C275.480591,85.220589 250.884201,75.894585 226.333511,66.449684 
	C223.051819,65.187180 220.427750,65.250191 217.661514,67.704384 
	C213.681366,71.235550 209.395493,74.422104 204.685638,78.197411 
M175.710892,107.747795 
	C175.417526,105.704216 176.465317,103.408104 174.457642,101.452667 
	C168.979858,103.850395 163.904526,106.975792 158.871658,110.178932 
	C157.162094,111.266968 156.488708,112.658859 156.840637,114.809227 
	C157.816360,120.770920 155.209473,125.309006 150.269440,128.264114 
	C145.451462,131.146210 140.331497,131.030655 135.769318,127.522781 
	C133.502884,125.780113 131.641418,126.023888 129.443466,127.360001 
	C124.325310,130.471298 119.156715,133.499649 114.006485,136.558121 
	C101.609138,143.920303 89.210579,151.280457 76.814529,158.640244 
	C77.865784,160.877014 79.608673,161.151337 81.102219,161.720123 
	C110.179611,172.793854 139.264267,183.848541 168.352631,194.893463 
	C175.470886,197.596268 175.689651,197.443481 175.692535,190.057480 
	C175.703140,162.933624 175.704880,135.809769 175.710892,107.747795 
M54.057667,143.435364 
	C57.059544,146.320435 60.154282,149.116318 63.035725,152.117050 
	C65.627007,154.815613 68.090813,155.179810 71.413139,153.192932 
	C89.701416,142.255920 108.052025,131.421600 126.470413,120.705307 
	C129.226120,119.101959 129.704468,117.526207 128.563965,114.685646 
	C124.661453,104.966064 120.957344,95.166946 117.142197,85.411995 
	C116.677277,84.223221 116.555061,82.753357 114.370697,81.935417 
	C89.416893,97.105705 63.357864,111.320503 38.173149,127.674606 
	C42.766277,134.103607 48.730278,137.955750 54.057667,143.435364 
M135.161743,111.488503 
	C135.866470,113.532059 136.648331,115.552887 137.258545,117.624290 
	C138.270370,121.058945 140.200241,123.426369 144.057114,122.656052 
	C148.005600,121.867439 149.976593,119.265564 149.619522,115.082848 
	C147.937271,95.376404 146.509201,75.644119 144.477295,55.974052 
	C143.823395,49.643799 139.578232,45.210960 133.396103,43.055195 
	C127.519897,41.006104 122.953796,43.676155 119.019356,47.552391 
	C114.781586,51.727478 114.209938,56.854786 116.300415,62.310493 
	C122.489380,78.462379 128.703323,94.604706 135.161743,111.488503 
M172.031769,92.568710 
	C167.002365,86.456726 160.705429,81.750000 154.050247,75.561882 
	C154.645599,85.254135 154.866440,93.652573 156.344711,102.904160 
	C162.128983,99.129433 167.492538,96.960312 172.031769,92.568710 
z"/>
<path fill="#133B4F" opacity="1.000000" stroke="none" 
	d="
M49.555275,100.004753 
	C48.044552,101.422340 46.516769,101.520027 45.084953,100.985435 
	C39.018448,98.720383 32.966820,96.409691 26.967550,93.973366 
	C24.792952,93.090248 23.233740,91.364464 24.281504,88.868446 
	C25.389555,86.228798 27.715172,85.939941 30.167154,86.925591 
	C36.022766,89.279427 41.857975,91.684769 47.683926,94.111328 
	C50.319435,95.209053 51.113033,97.086777 49.555275,100.004753 
z"/>
<path fill="#133B4F" opacity="1.000000" stroke="none" 
	d="
M57.413643,76.527344 
	C55.415249,72.666702 53.530079,69.161232 51.785019,65.587349 
	C50.564384,63.087482 49.657127,60.303669 52.888355,58.703316 
	C55.997406,57.163479 57.394764,59.721802 58.554581,61.954105 
	C60.847191,66.366692 63.035755,70.834488 65.203407,75.310417 
	C66.403755,77.788971 67.517960,80.612320 64.298805,82.228233 
	C60.926674,83.920944 59.643955,81.112251 58.466644,78.637657 
	C58.181759,78.038864 57.880459,77.447884 57.413643,76.527344 
z"/>
<path fill="#133B4F" opacity="1.000000" stroke="none" 
	d="
M216.522797,46.590561 
	C212.491119,41.369514 211.028763,35.367771 209.097351,29.585169 
	C208.460739,27.679184 209.197403,25.899225 211.229904,25.109680 
	C213.227325,24.333771 215.123520,25.023039 215.879364,26.864443 
	C217.957016,31.926184 220.023407,37.033722 221.484116,42.292614 
	C222.410660,45.628387 220.245392,47.162685 216.522797,46.590561 
z"/>
<path fill="#133B4F" opacity="1.000000" stroke="none" 
	d="
M243.463043,46.996368 
	C242.690720,39.512325 246.997238,33.911407 249.550400,27.764889 
	C250.223831,26.143614 252.265778,25.850348 253.932800,26.770128 
	C255.495590,27.632389 256.575989,29.114241 255.907990,30.908278 
	C253.941925,36.188648 252.008148,41.506699 249.575134,46.576485 
	C248.396790,49.031853 245.935410,49.233906 243.463043,46.996368 
z"/>
<path fill="#133B4F" opacity="1.000000" stroke="none" 
	d="
M265.106415,55.609680 
	C268.920471,51.307693 273.525787,48.570023 277.858307,45.499805 
	C279.789459,44.131306 281.980225,43.889225 283.551636,46.185646 
	C284.962738,48.247738 284.132568,50.065399 282.381714,51.413811 
	C278.690125,54.256859 275.015015,57.144840 271.130402,59.706959 
	C267.333710,62.211048 265.400970,60.932007 265.106415,55.609680 
z"/>
<path fill="#133B4F" opacity="1.000000" stroke="none" 
	d="
M247.743317,241.808075 
	C251.384323,242.286377 254.215347,243.610931 256.538269,245.858124 
	C258.099915,247.368866 258.869812,249.204453 257.172028,251.123779 
	C255.771133,252.707504 254.127731,252.705383 252.243591,251.753433 
	C243.893417,247.534576 240.468430,248.984268 237.051849,258.080597 
	C236.193985,260.364624 235.190735,262.692780 232.173950,261.728638 
	C229.309586,260.813202 229.440750,258.253784 229.899277,255.891769 
	C231.527740,247.503098 238.145813,242.181335 247.743317,241.808075 
z"/>
<path fill="#133B4F" opacity="1.000000" stroke="none" 
	d="
M246.504333,229.576141 
	C248.013870,225.195358 250.711594,223.070053 254.976730,224.347366 
	C258.314178,225.346848 260.324402,227.941559 259.858154,231.523453 
	C259.378754,235.206665 257.038666,237.431137 253.168839,237.680115 
	C248.989120,237.949036 246.549225,235.140213 246.504333,229.576141 
z"/>
<path fill="#133B4F" opacity="1.000000" stroke="none" 
	d="
M224.695312,235.780106 
	C230.703339,238.773239 232.020950,244.257599 227.829361,247.548019 
	C225.283142,249.546814 222.378143,250.069397 219.553864,248.162704 
	C216.939606,246.397781 216.198303,243.675583 216.876587,240.715240 
	C217.762512,236.848572 220.503845,235.441055 224.695312,235.780106 
z"/>
<path fill="#133B4F" opacity="1.000000" stroke="none" 
	d="
M148.011993,218.433685 
	C150.692001,219.043640 152.436783,220.217239 151.881332,222.934952 
	C151.515182,224.726440 150.108231,225.747711 148.319199,225.951004 
	C146.425293,226.166199 145.061356,225.156860 144.471420,223.431580 
	C143.488480,220.557007 144.937988,219.051147 148.011993,218.433685 
z"/>
<path fill="#133B4F" opacity="1.000000" stroke="none" 
	d="
M177.545029,263.417053 
	C175.461060,265.599792 173.539536,265.708771 171.749603,263.740173 
	C170.621979,262.500000 170.685684,261.003357 171.521027,259.599396 
	C172.374542,258.164886 173.746918,257.461151 175.311050,257.994843 
	C177.709686,258.813263 178.637192,260.564819 177.545029,263.417053 
z"/>
<path fill="#133B4F" opacity="1.000000" stroke="none" 
	d="
M226.154602,109.385834 
	C226.560165,111.797203 225.947327,113.450920 223.683228,113.618576 
	C222.029724,113.741028 220.426910,113.081947 219.769547,111.281303 
	C219.174988,109.652672 219.786987,108.359589 221.230576,107.551437 
	C223.305069,106.390099 224.985703,106.814323 226.154602,109.385834 
z"/>
<path fill="#133B4F" opacity="1.000000" stroke="none" 
	d="
M135.655701,149.136475 
	C136.951401,140.699631 141.436554,135.108093 148.203873,134.532791 
	C155.809021,133.886276 161.252197,135.200958 165.418060,142.690125 
	C168.619507,148.445572 167.577271,155.629837 162.897263,160.673660 
	C158.775589,165.115753 151.598373,166.993256 145.895142,164.621841 
	C139.331024,161.892441 135.672699,156.894424 135.655701,149.136475 
M152.891006,141.645538 
	C148.796646,140.902252 145.557739,142.384308 143.830917,146.042816 
	C142.360626,149.157883 142.405563,152.573318 144.920151,155.348145 
	C147.325851,158.002853 150.349838,159.213654 153.860321,157.783920 
	C157.083740,156.471100 159.704376,154.376373 159.635010,150.508881 
	C159.561172,146.391083 158.011139,143.083679 152.891006,141.645538 
z"/>
</svg>