<?xml version="1.0" encoding="utf-8"?>
<!-- Generator: Adobe Illustrator 23.0.5, SVG Export Plug-In . SVG Version: 6.00 Build 0)  -->
<svg version="1.1" id="Layer_1" xmlns="http://www.w3.org/2000/svg" xmlns:xlink="http://www.w3.org/1999/xlink" x="0px" y="0px"
	 viewBox="0 0 756 585" style="enable-background:new 0 0 756 585;" xml:space="preserve">
<style type="text/css">
	.st0{fill:#FFFFFF;}
	.st1{fill:#D8D8D8;}
	.st2{fill:none;stroke:#133B4F;stroke-width:4;stroke-linecap:round;stroke-linejoin:round;stroke-miterlimit:10;}
	.st3{fill:#829EB5;}
	.st4{fill:#67CC70;}
	.st5{fill:#133B4F;}
	.st6{fill:#6F8699;}
	.st7{fill:#D7D9E2;}
	.st8{fill:#D6D9E2;}
	.st9{fill:none;stroke:#133B4F;stroke-width:4;stroke-miterlimit:10;}
	.st10{fill:#96B6D1;}
	.st11{fill:#738CA1;}
	.st12{fill:#829EB5;}
	.st13{fill:#829EB5;}
	.st14{fill:#819DB3;}
	.st15{fill:#829EB5;}
	.st16{fill:#829EB5;}
	.st17{fill:none;stroke:#133B4F;stroke-width:6;stroke-linecap:round;stroke-linejoin:round;stroke-miterlimit:10;}
</style>
<g>
	<path id="XMLID_116_" class="st0" d="M608.1,549L608.1,549c-10.5,0-19-8.5-19-19V381h38v149C627.1,540.5,618.6,549,608.1,549z"/>
	<path id="XMLID_114_" class="st1" d="M630.1,365h-44c-4.4,0-8,3.6-8,8l0,0c0,4.4,3.6,8,8,8h44c4.4,0,8-3.6,8-8l0,0
		C638.1,368.6,634.5,365,630.1,365z"/>
	<path id="XMLID_25_" class="st2" d="M608.1,549L608.1,549c-10.5,0-19-8.5-19-19V381h38v149C627.1,540.5,618.6,549,608.1,549z"/>
	<path id="XMLID_24_" class="st2" d="M630.1,365h-44c-4.4,0-8,3.6-8,8l0,0c0,4.4,3.6,8,8,8h44c4.4,0,8-3.6,8-8l0,0
		C638.1,368.6,634.5,365,630.1,365z"/>
	<path id="XMLID_113_" class="st3" d="M598.1,476v54c0,5.5,4.5,10,10,10s10-4.5,10-10v-54H598.1z"/>
	<path id="XMLID_107_" class="st2" d="M598.1,476v54c0,5.5,4.5,10,10,10s10-4.5,10-10v-54H598.1z"/>
	<circle id="XMLID_143_" class="st3" cx="589.1" cy="325.3" r="3.8"/>
	<circle id="XMLID_145_" class="st3" cx="603" cy="342.8" r="3.2"/>
	<circle id="XMLID_148_" class="st3" cx="619.6" cy="293.3" r="7.2"/>
	<circle id="XMLID_149_" class="st3" cx="615.4" cy="322.9" r="6.2"/>
	<circle id="XMLID_129_" class="st2" cx="589.1" cy="325.3" r="3.8"/>
	<circle id="XMLID_128_" class="st2" cx="603" cy="342.8" r="3.2"/>
	<circle id="XMLID_127_" class="st2" cx="601.1" cy="309.5" r="2.1"/>
	<circle id="XMLID_119_" class="st2" cx="619.6" cy="293.3" r="7.2"/>
	<circle id="XMLID_117_" class="st2" cx="615.4" cy="322.9" r="6.2"/>
	<circle id="XMLID_140_" class="st3" cx="604.6" cy="436.4" r="7.2"/>
	<circle id="XMLID_134_" class="st2" cx="604.6" cy="436.4" r="7.2"/>
	<circle id="XMLID_153_" class="st3" cx="610.8" cy="461.1" r="3.1"/>
	<circle id="XMLID_151_" class="st2" cx="610.8" cy="461.1" r="3.1"/>
	<circle id="XMLID_165_" class="st3" cx="614.9" cy="395" r="4.3"/>
	<circle id="XMLID_162_" class="st2" cx="614.9" cy="395" r="4.3"/>
	<circle id="XMLID_169_" class="st4" cx="599.8" cy="388.3" r="1.6"/>
	<circle id="XMLID_167_" class="st2" cx="599.8" cy="388.3" r="1.6"/>
	<circle id="XMLID_160_" class="st5" cx="609.3" cy="491.6" r="1.6"/>
	<circle id="XMLID_156_" class="st5" cx="600.7" cy="508.4" r="2.6"/>
	<circle id="XMLID_158_" class="st5" cx="612.4" cy="521.4" r="3.8"/>
	<circle id="XMLID_159_" class="st5" cx="606.8" cy="486.9" r="0.6"/>
</g>
<path id="XMLID_76_" class="st0" d="M442.6,416c-2.2,0-4-1.8-4-4V217.5c0-16.3-13.2-29.5-29.5-29.5s-29.5,13.2-29.5,29.5v44.2
	c0,37.1-30.2,67.3-67.3,67.3S245,298.8,245,261.7v-95.6c0-22.6-18.4-41-41-41s-41,18.4-41,41V207c0,2.2-1.8,4-4,4s-4-1.8-4-4v-40.9
	c0-27,22-49,49-49s49,22,49,49v95.6c0,32.7,26.6,59.3,59.3,59.3s59.3-26.6,59.3-59.3v-44.2c0-20.7,16.8-37.5,37.5-37.5
	s37.5,16.8,37.5,37.5V412C446.6,414.2,444.8,416,442.6,416z"/>
<path id="XMLID_33_" class="st2" d="M442.6,416c-2.2,0-4-1.8-4-4V217.5c0-16.3-13.2-29.5-29.5-29.5s-29.5,13.2-29.5,29.5v44.2
	c0,37.1-30.2,67.3-67.3,67.3S245,298.8,245,261.7v-95.6c0-22.6-18.4-41-41-41s-41,18.4-41,41V207c0,2.2-1.8,4-4,4s-4-1.8-4-4v-40.9
	c0-27,22-49,49-49s49,22,49,49v95.6c0,32.7,26.6,59.3,59.3,59.3s59.3-26.6,59.3-59.3v-44.2c0-20.7,16.8-37.5,37.5-37.5
	s37.5,16.8,37.5,37.5V412C446.6,414.2,444.8,416,442.6,416z"/>
<path id="XMLID_38_" class="st0" d="M304.9,582h-20V12c0-5.5,4.5-10,10-10l0,0c5.5,0,10,4.5,10,10V582z"/>
<path id="XMLID_8_" class="st2" d="M304.9,582h-20V12c0-5.5,4.5-10,10-10l0,0c5.5,0,10,4.5,10,10V582z"/>
<path id="XMLID_49_" class="st6" d="M339.8,257.6H312v-10h27.8c2.8,0,5,2.2,5,5l0,0C344.8,255.3,342.5,257.6,339.8,257.6z"/>
<path id="XMLID_14_" class="st2" d="M339.8,257.6H312v-10h27.8c2.8,0,5,2.2,5,5l0,0C344.8,255.3,342.5,257.6,339.8,257.6z"/>
<g>
	<rect id="XMLID_109_" x="369.3" y="565" class="st7" width="320" height="17"/>
	<rect id="XMLID_18_" x="369.3" y="565" class="st2" width="320" height="17"/>
</g>
<rect id="XMLID_106_" x="385.5" y="415" class="st8" width="10" height="150"/>
<rect id="XMLID_20_" x="385.5" y="415" class="st2" width="10" height="150"/>
<rect id="XMLID_108_" x="663.2" y="415" class="st8" width="10" height="150"/>
<rect id="XMLID_27_" x="663.2" y="415" class="st2" width="10" height="150"/>
<path id="XMLID_34_" class="st9" d="M154.4,471.1c0,0-0.4-9.3-2-13.7c4.7,2.1,9.1,11.7,9.1,11.7L154.4,471.1z"/>
<rect id="XMLID_51_" x="221.3" y="560" class="st6" width="123.5" height="22"/>
<rect id="XMLID_35_" x="221.3" y="560" class="st2" width="123.5" height="22"/>
<g>
	<path id="XMLID_64_" class="st0" d="M191.1,534.9l-21.3-3.6v-16.1h8.5c3.4,0,6.4-2.6,6.5-6c0.1-3.5-2.7-6.4-6.2-6.4h-38.9
		c-3.4,0-6.4,2.6-6.5,6c-0.1,3.5,2.7,6.4,6.2,6.4h8.8v16.1l-21.3,3.6c-4.8,0.8-8.1,5.4-7.3,10.3l5.2,28.8c0.8,4.7,4.9,8.1,9.7,8.1
		h49.2c4.7,0,8.8-3.4,9.7-8.1l5.2-28.8C199.2,540.3,196,535.7,191.1,534.9z"/>
	<path id="XMLID_32_" class="st2" d="M191.1,534.9l-21.3-3.6v-16.1h8.5c3.4,0,6.4-2.6,6.5-6c0.1-3.5-2.7-6.4-6.2-6.4h-38.9
		c-3.4,0-6.4,2.6-6.5,6c-0.1,3.5,2.7,6.4,6.2,6.4h8.8v16.1l-21.3,3.6c-4.8,0.8-8.1,5.4-7.3,10.3l5.2,28.8c0.8,4.7,4.9,8.1,9.7,8.1
		h49.2c4.7,0,8.8-3.4,9.7-8.1l5.2-28.8C199.2,540.3,196,535.7,191.1,534.9z"/>
	<path id="XMLID_65_" class="st10" d="M174.8,477c-4.1-13.2-12.3-20.4-15.8-24c-1.9,15-17.6,19.7-16,33.8
		c1.3,11.5,12.3,15,17.7,14.1C172,499,178,487.2,174.8,477z"/>
	<path id="XMLID_31_" class="st9" d="M174.8,477c-4.1-13.2-12.3-20.4-15.8-24c-1.9,15-17.6,19.7-16,33.8c1.3,11.5,12.3,15,17.7,14.1
		C172,499,178,487.2,174.8,477z"/>
	<path id="XMLID_66_" class="st11" d="M165.7,487.2c-1.6-7.1-5-10.7-6.8-12.6c-1,7.9-9.2,10.3-8.4,17.7c0.7,6.1,6.5,7.9,9.3,7.4
		C165.7,498.7,166.6,491.3,165.7,487.2z"/>
	<path id="XMLID_30_" class="st9" d="M166.6,486.1c-1.6-6.7-5.9-9.7-7.7-11.6c-1,7.9-9.2,10.3-8.4,17.7c0.7,6.1,6.5,7.9,9.3,7.4
		C165.7,498.7,167.6,490.3,166.6,486.1z"/>
	<path id="XMLID_67_" class="st12" d="M130.6,550.3l3.4,18.8c0.3,1.6,1.7,2.8,3.4,2.8h43.1c1.7,0,3.1-1.2,3.4-2.8l3.4-18.8H130.6z"
		/>
	<path id="XMLID_70_" class="st2" d="M130.6,550.3l3.4,18.8c0.3,1.6,1.7,2.8,3.4,2.8h43.1c1.7,0,3.1-1.2,3.4-2.8l3.4-18.8H130.6z"/>
	<line id="XMLID_69_" class="st2" x1="159" y1="502.8" x2="159" y2="563"/>
</g>
<g>
	<path id="XMLID_12_" class="st0" d="M176,277.1v-58h-34v58c0,3.2-2,6-5,7c-28.5,9.4-48.9,36.6-48,68.5c1,37,31.3,67.1,68.3,68
		c39.4,0.9,71.7-30.8,71.7-70c0-30.9-20.1-57.2-47.9-66.4C178,283,176,280.2,176,277.1z"/>
	<path id="XMLID_43_" class="st2" d="M176,277.1v-58h-34v58c0,3.2-2,6-5,7c-28.5,9.4-48.9,36.6-48,68.5c1,37,31.3,67.1,68.3,68
		c39.4,0.9,71.7-30.8,71.7-70c0-30.9-20.1-57.2-47.9-66.4C178,283,176,280.2,176,277.1z"/>
	<path id="XMLID_45_" class="st13" d="M216.5,333.5L216.5,333.5c-1.4-6.1-6.8-10.6-13.2-10.6c-3.1,0-6,1.1-8.3,2.9
		c-1.6-1.1-3.5-1.8-5.6-1.8c-2,0-3.9,0.6-5.4,1.7c0-0.3,0-0.5,0-0.8c0-5.3-4.3-9.5-9.5-9.5c-1.5,0-2.9,0.4-4.2,1
		c-3.3-4.9-8.9-8.1-15.3-8.1c-10.2,0-18.5,8.3-18.5,18.5c0,2.4,1.3,6.8,1.3,6.8c0-0.3,0,0,0-0.3c0-6.1-6.3-11.6-12.3-11.6
		s-11,4.9-11,11c0,0.3,0,0.6,0,0.8h-13.1c-1.7,5.9-2.6,12.2-2.4,18.7c0.4,15.3,6.7,29.8,17.7,40.7c11,10.9,25.5,17.2,40.8,17.5
		c0.5,0,1,0,1.5,0l0,0c16,0,31.1-6.2,42.4-17.6c11.3-11.3,17.6-26.4,17.6-42.4C219,344.6,218.1,338.9,216.5,333.5z"/>
	<path id="XMLID_60_" class="st2" d="M216.5,333.5L216.5,333.5c-1.4-6.1-6.8-10.6-13.2-10.6c-3.1,0-6,1.1-8.3,2.9
		c-1.6-1.1-3.5-1.8-5.6-1.8c-2,0-3.9,0.6-5.4,1.7c0-0.3,0-0.5,0-0.8c0-5.3-4.3-9.5-9.5-9.5c-1.5,0-2.9,0.4-4.2,1
		c-3.3-4.9-8.9-8.1-15.3-8.1c-10.2,0-18.5,8.3-18.5,18.5c0,2.4,1.3,6.8,1.3,6.8c0-0.3,0,0,0-0.3c0-6.1-6.3-11.6-12.3-11.6
		s-11,4.9-11,11c0,0.3,0,0.6,0,0.8h-13.1c-1.7,5.9-2.6,12.2-2.4,18.7c0.4,15.3,6.7,29.8,17.7,40.7c11,10.9,25.5,17.2,40.8,17.5
		c0.5,0,1,0,1.5,0l0,0c16,0,31.1-6.2,42.4-17.6c11.3-11.3,17.6-26.4,17.6-42.4C219,344.6,218.1,338.9,216.5,333.5z"/>
	<path id="XMLID_41_" class="st2" d="M116.4,338.8c-1.2-1.8-1.9-3.9-1.9-6.2c0-6.1,4.9-11,11-11c6.1,0,12.3,3,12.3,11"/>
	<path id="XMLID_44_" class="st2" d="M136.6,329.2c-0.1-0.8-0.2-1.7-0.2-2.5c0-10.2,8.3-18.5,18.5-18.5c6.4,0,12,3.2,15.3,8.1"/>
	<path id="XMLID_47_" class="st2" d="M165.4,321.7c0.8-2.4,2.6-4.3,4.8-5.4"/>
	<path id="XMLID_50_" class="st2" d="M170.3,316.3c1.3-0.6,2.7-1,4.2-1c5.3,0,9.5,4.3,9.5,9.5"/>
	<path id="XMLID_53_" class="st2" d="M185.4,324.8c1.2-0.6,2.6-0.9,4-0.9c2.1,0,4,0.7,5.6,1.8"/>
	<path id="XMLID_59_" class="st2" d="M189.7,336.5c0-4.4,2-8.2,5.2-10.7"/>
	<path id="XMLID_56_" class="st2" d="M195,325.8c2.3-1.8,5.2-2.9,8.3-2.9c6.5,0,11.9,4.5,13.2,10.6"/>
	<rect id="XMLID_63_" x="149.6" y="192" class="st14" width="18.7" height="35.5"/>
	<rect id="XMLID_62_" x="149.6" y="192" class="st2" width="18.7" height="35.5"/>
	<path id="XMLID_13_" class="st1" d="M180,219h-42c-4.4,0-8-3.6-8-8l0,0c0-4.4,3.6-8,8-8h42c4.4,0,8,3.6,8,8l0,0
		C188,215.5,184.4,219,180,219z"/>
	<path id="XMLID_15_" class="st2" d="M180,219h-42c-4.4,0-8-3.6-8-8l0,0c0-4.4,3.6-8,8-8h42c4.4,0,8,3.6,8,8l0,0
		C188,215.5,184.4,219,180,219z"/>
	<circle id="XMLID_71_" class="st13" cx="159" cy="282.8" r="7.5"/>
	<circle id="XMLID_68_" class="st9" cx="159" cy="282.8" r="7.5"/>
	<circle id="XMLID_72_" class="st13" cx="182.5" cy="308" r="4"/>
	<circle id="XMLID_73_" class="st2" cx="182.5" cy="308" r="4"/>
	<circle id="XMLID_74_" class="st2" cx="142" cy="299.6" r="1.7"/>
	<circle id="XMLID_75_" class="st5" cx="141.7" cy="362.3" r="4"/>
	<circle id="XMLID_78_" class="st5" cx="162.9" cy="382.6" r="6.4"/>
	<circle id="XMLID_82_" class="st5" cx="185.4" cy="364.7" r="2.3"/>
	<circle id="XMLID_81_" class="st5" cx="165.4" cy="346.7" r="1.6"/>
</g>
<rect id="XMLID_87_" x="277.9" y="235.6" class="st6" width="34" height="34"/>
<rect id="XMLID_9_" x="277.9" y="235.6" class="st2" width="34" height="34"/>
<g id="XMLID_90_">
	<path id="XMLID_92_" class="st0" d="M458.7,466c-2.2,0-4-1.8-4-4V332.3c0-21.7,17.6-39.3,39.3-39.3s39.3,17.6,39.3,39.3v90.2
		c0,2.2-1.8,4-4,4s-4-1.8-4-4v-90.2c0-17.3-14-31.3-31.3-31.3s-31.3,14-31.3,31.3V462C462.7,464.2,460.9,466,458.7,466z"/>
</g>
<g id="XMLID_89_">
	<path id="XMLID_91_" class="st2" d="M458.7,466c-2.2,0-4-1.8-4-4V332.3c0-21.7,17.6-39.3,39.3-39.3s39.3,17.6,39.3,39.3v90.2
		c0,2.2-1.8,4-4,4s-4-1.8-4-4v-90.2c0-17.3-14-31.3-31.3-31.3s-31.3,14-31.3,31.3V462C462.7,464.2,460.9,466,458.7,466z"/>
</g>
<g>
	<path id="XMLID_110_" class="st0" d="M529.3,549L529.3,549c-10.5,0-19-8.5-19-19V381h38v149C548.3,540.5,539.8,549,529.3,549z"/>
	<path id="XMLID_22_" class="st2" d="M529.3,549L529.3,549c-10.5,0-19-8.5-19-19V381h38v149C548.3,540.5,539.8,549,529.3,549z"/>
	<rect id="XMLID_112_" x="513.6" y="345.3" class="st14" width="31.5" height="35.7"/>
	<rect id="XMLID_111_" x="513.6" y="345.3" class="st2" width="31.5" height="35.7"/>
	<path id="XMLID_28_" class="st1" d="M551.3,365h-44c-4.4,0-8,3.6-8,8l0,0c0,4.4,3.6,8,8,8h44c4.4,0,8-3.6,8-8l0,0
		C559.3,368.6,555.7,365,551.3,365z"/>
	<path id="XMLID_21_" class="st2" d="M551.3,365h-44c-4.4,0-8,3.6-8,8l0,0c0,4.4,3.6,8,8,8h44c4.4,0,8-3.6,8-8l0,0
		C559.3,368.6,555.7,365,551.3,365z"/>
	<path id="XMLID_104_" class="st15" d="M519.3,499.2V530c0,5.5,4.5,10,10,10s10-4.5,10-10v-30.8H519.3z"/>
	<path id="XMLID_125_" class="st2" d="M519.3,499.2V530c0,5.5,4.5,10,10,10s10-4.5,10-10v-30.8H519.3z"/>
	<circle id="XMLID_48_" class="st15" cx="526" cy="473" r="3"/>
	<circle id="XMLID_46_" class="st2" cx="526" cy="473" r="3"/>
	<circle id="XMLID_122_" class="st15" cx="531" cy="442.8" r="5"/>
	<circle id="XMLID_137_" class="st2" cx="531" cy="442.8" r="5"/>
	<circle id="XMLID_147_" class="st15" cx="531.6" cy="488" r="2"/>
	<circle id="XMLID_144_" class="st2" cx="531.6" cy="488" r="2"/>
	<circle id="XMLID_139_" class="st5" cx="527.7" cy="521.4" r="1.8"/>
	<circle id="XMLID_142_" class="st5" cx="528.7" cy="511.2" r="2.9"/>
</g>
<g>
	<rect id="XMLID_94_" x="434.8" y="345.3" class="st14" width="31.5" height="35.7"/>
	<rect id="XMLID_93_" x="434.8" y="345.3" class="st2" width="31.5" height="35.7"/>
	<path id="XMLID_96_" class="st1" d="M472.6,365h-44c-4.4,0-8,3.6-8,8l0,0c0,4.4,3.6,8,8,8h44c4.4,0,8-3.6,8-8l0,0
		C480.6,368.6,477,365,472.6,365z"/>
	<path id="XMLID_19_" class="st2" d="M472.6,365h-44c-4.4,0-8,3.6-8,8l0,0c0,4.4,3.6,8,8,8h44c4.4,0,8-3.6,8-8l0,0
		C480.6,368.6,477,365,472.6,365z"/>
	<path id="XMLID_26_" class="st0" d="M450.6,549L450.6,549c-10.5,0-19-8.5-19-19V381h38v149C469.6,540.5,461.1,549,450.6,549z"/>
	<path id="XMLID_17_" class="st2" d="M450.6,549L450.6,549c-10.5,0-19-8.5-19-19V381h38v149C469.6,540.5,461.1,549,450.6,549z"/>
	<path id="XMLID_29_" class="st16" d="M440.6,450.3V530c0,5.5,4.5,10,10,10s10-4.5,10-10v-79.7H440.6z"/>
	<path id="XMLID_115_" class="st2" d="M440.6,450.3V530c0,5.5,4.5,10,10,10s10-4.5,10-10v-79.7H440.6z"/>
	<circle id="XMLID_171_" class="st5" cx="447.7" cy="486" r="2.9"/>
	<circle id="XMLID_174_" class="st5" cx="446.6" cy="434.3" r="1.9"/>
	<circle id="XMLID_173_" class="st5" cx="453.5" cy="462.1" r="1.2"/>
	<circle id="XMLID_172_" class="st5" cx="453.5" cy="505.5" r="1.2"/>
</g>
<rect id="XMLID_101_" x="369.3" y="407" class="st7" width="320" height="8"/>
<rect id="XMLID_16_" x="369.3" y="407" class="st2" width="320" height="8"/>
<rect id="XMLID_98_" x="240.3" y="174.4" class="st14" width="17.2" height="88.2"/>
<rect id="XMLID_95_" x="240.3" y="174.4" class="st2" width="17.2" height="88.2"/>
<rect id="XMLID_39_" x="194.7" y="247.6" class="st6" width="83.2" height="10"/>
<rect id="XMLID_10_" x="194.7" y="247.6" class="st2" width="83.2" height="10"/>
<path id="XMLID_40_" class="st6" d="M129,265.6h60c7.2,0,13-5.8,13-13l0,0c0-7.2-5.8-13-13-13h-60c-7.2,0-13,5.8-13,13l0,0
	C116,259.8,121.8,265.6,129,265.6z"/>
<path id="XMLID_11_" class="st2" d="M129,265.6h60c7.2,0,13-5.8,13-13l0,0c0-7.2-5.8-13-13-13h-60c-7.2,0-13,5.8-13,13l0,0
	C116,259.8,121.8,265.6,129,265.6z"/>
<line id="XMLID_23_" class="st17" x1="3" y1="582" x2="753" y2="582"/>
</svg>
