<?xml version="1.0" encoding="utf-8"?>
<svg viewBox="60.98 66.53 155.47 161.02" xmlns="http://www.w3.org/2000/svg">
  <defs>
    <style>.cls-1{fill:#005baa;}.cls-2{fill:#52caf5;}.cls-3{fill:none;}.cls-4{fill:#fff;}</style>
  </defs>
  <g id="Icon">
    <path class="cls-3" d="M124.05,96.52h0c-.11,1.26-.17,2.51-.17,3.77C123.87,99,123.93,97.77,124.05,96.52Z"/>
    <path class="cls-3" d="M152.89,197.35h0c0-.68.07-1.37.06-2.06C153,196,152.93,196.66,152.89,197.35Z"/>
    <path class="cls-3" d="M124.09,104.19a37.07,37.07,0,0,1-.22-3.8,34.76,34.76,0,0,0,.22,3.81Z"/>
    <path class="cls-3" d="M141.22,227a64.62,64.62,0,0,0,5.48-8.53h0A65.86,65.86,0,0,1,141.22,227Z"/>
    <path class="cls-3" d="M125.09,90.09q.64-2.79,1.53-5.45h0c-.58,1.77-1.1,3.6-1.53,5.46Z"/>
    <path class="cls-3" d="M152.15,203.59a50,50,0,0,1-1.39,5.39h0a47.75,47.75,0,0,0,1.39-5.39Z"/>
    <path class="cls-2" d="M189.74,163.08l-8.17-48.27a5.64,5.64,0,0,0-3.59-4.35l-45.78-17a4.37,4.37,0,0,0-.62-.17h0c-.14.75-.27,1.5-.37,2.25a1.49,1.49,0,0,0,0,.21c-.1.72-.18,1.45-.23,2.17a.57.57,0,0,1,0,.13,31.21,31.21,0,0,0,0,3.35c0,.24,0,.49,0,.73s0,.29,0,.44a1.46,1.46,0,0,1,.22,0L167.81,113a7.77,7.77,0,0,1,5.38,5.56l9.29,37a7.8,7.8,0,0,1-2.11,7.45l-27.29,26.55c-.18.17-.38.3-.57.45h0c.11.74.2,1.46.26,2.18a30.37,30.37,0,0,1,.19,3.13c0,.69,0,1.38-.06,2.06l34.89-29A5.65,5.65,0,0,0,189.74,163.08Z"/>
    <path class="cls-2" d="M148,146.44l-4.55-7.94a1.18,1.18,0,0,0-1-.58h-3.1c1,3.71,2,7.47,2.94,11.21.51,1.91,1,3.82,1.52,5.74h0l4.19-7.25A1.19,1.19,0,0,0,148,146.44Z"/>
    <path class="cls-2" d="M157.93,151.08l-4.79-17.7a2.36,2.36,0,0,0-1.66-1.66l-14.71-3.9h0c.79,3.09,1.61,6.26,2.46,9.49h3.25a1.76,1.76,0,0,1,1.52.89l4.55,7.94a1.78,1.78,0,0,1,0,1.76l-4.5,7.77c.78,2.94,1.55,5.87,2.29,8.74h0l11-11.08A2.35,2.35,0,0,0,157.93,151.08Z"/>
    <path class="cls-2" d="M167.72,156.49a3.42,3.42,0,0,0,.86-3.27l-7.31-26.93a3.36,3.36,0,0,0-2.39-2.38l-24.74-6.55,1.08,4.34.09.38c.36,1.44.73,2.9,1.12,4.41v0l15.35,4.07a3.52,3.52,0,0,1,2.5,2.49l4.79,17.7a3.55,3.55,0,0,1-.9,3.42h0l-11.48,11.58h0c.85,3.26,1.67,6.43,2.43,9.46v0Z"/>
    <path class="cls-2" d="M179.33,156.31l-9.29-37a4.48,4.48,0,0,0-3.11-3.22L131.51,106c.56,2.62,1.25,5.61,2,8.9h0l25.89,6.85a5.62,5.62,0,0,1,3.95,3.93l7.3,26.94a5.59,5.59,0,0,1-1.42,5.39l-19.52,19.71c.76,3,1.45,5.86,2.07,8.46l26.29-25.58A4.52,4.52,0,0,0,179.33,156.31Z"/>
    <path class="cls-2" d="M198.41,175,196.2,114.6a6.77,6.77,0,0,0-3.57-5.7l-53.3-28.29a6.73,6.73,0,0,0-3.18-.77h-.08c0,.1-.09.21-.14.31-.59,1.29-1.17,2.64-1.71,4a.19.19,0,0,0,0,.07c-.58,1.51-1.12,3.07-1.59,4.67h0a11.1,11.1,0,0,1,1.12.34l45.78,17a10.08,10.08,0,0,1,6.4,7.75l8.17,48.27a10.11,10.11,0,0,1-3.49,9.44L153,203a9.49,9.49,0,0,1-.83.58,47.75,47.75,0,0,1-1.39,5.39l44.51-28A6.73,6.73,0,0,0,198.41,175Z"/>
    <path class="cls-2" d="M204.32,102.39l-3.22-1.86L191,94.65,143.29,67.13l-1.31,2c-.19.28-.39.6-.61,1-.45.72-1,1.58-1.55,2.56-.29.49-.58,1-.89,1.56h0a12.37,12.37,0,0,1,3.17,1.17l53.3,28.28a12.71,12.71,0,0,1,6.72,10.73l2.21,60.42a12.69,12.69,0,0,1-5.91,11.2l-51.08,32.14c-.2.13-.43.23-.64.34a64.62,64.62,0,0,1-5.48,8.53l-.37.49a11,11,0,0,0,3.07-1.19l60.28-34.8a11.21,11.21,0,0,0,5.6-9.7l.09-69.73A11.24,11.24,0,0,0,204.32,102.39Z"/>
    <path class="cls-1" d="M127.75,146.4a1.18,1.18,0,0,0,0,1.18l4.55,7.93a1.16,1.16,0,0,0,1,.59h3.62L135.58,151l-.06-.33c-1.07-4.06-2.15-8.15-3.2-12.17h0Z"/>
    <path class="cls-1" d="M87.08,130.89l8.17,48.27a5.64,5.64,0,0,0,3.59,4.35l45.78,17a4.9,4.9,0,0,0,.92.21c0-.08,0-.16.05-.25.11-.78.2-1.58.26-2.38,0-.33,0-.67.05-1,0-.56,0-1.13,0-1.7,0-.39,0-.78,0-1.18,0-.58-.07-1.17-.13-1.76,0-.35-.09-.71-.13-1.06h0L109,181a7.77,7.77,0,0,1-5.37-5.56l-9.29-37A7.8,7.8,0,0,1,96.45,131l27.29-26.55c.11-.1.24-.16.35-.25a34.76,34.76,0,0,1-.22-3.81v-.1c0-1.26.06-2.51.17-3.77L89,125.6A5.66,5.66,0,0,0,87.08,130.89Z"/>
    <path class="cls-1" d="M108.24,140.75l7.3,26.94a3.4,3.4,0,0,0,2.4,2.37l24.28,6.43v0c-.35-1.35-.7-2.74-1.06-4.15a2.33,2.33,0,0,0-.07-.25c-.37-1.46-.75-2.94-1.14-4.43v0l-15.75-4.18a3.53,3.53,0,0,1-2.5-2.49l-4.79-17.7a3.56,3.56,0,0,1,.9-3.42l11.78-11.88h0c-.38-1.48-.74-2.92-1.1-4.34,0-.09-.05-.19-.07-.28-.37-1.46-.72-2.88-1.06-4.26L109.1,137.48A3.38,3.38,0,0,0,108.24,140.75Z"/>
    <path class="cls-1" d="M78.41,119l2.21,60.42a6.75,6.75,0,0,0,3.57,5.7l53.3,28.29a6.74,6.74,0,0,0,3.62.72c.11-.2.21-.4.31-.61.57-1.15,1.12-2.34,1.62-3.6l0-.07a44.42,44.42,0,0,0,1.55-4.69h0a9.4,9.4,0,0,1-1.53-.42l-45.78-17a10.06,10.06,0,0,1-6.4-7.75l-8.18-48.27a10.1,10.1,0,0,1,3.5-9.43L123.84,91a9.47,9.47,0,0,1,1.24-.86c.43-1.86,1-3.69,1.53-5.46L81.54,113A6.74,6.74,0,0,0,78.41,119Z"/>
    <path class="cls-1" d="M118,142.93l4.79,17.7a2.34,2.34,0,0,0,1.66,1.65l15.11,4v0c-.82-3.13-1.66-6.33-2.51-9.53v0h-3.77a1.77,1.77,0,0,1-1.53-.89l-4.55-7.93a1.78,1.78,0,0,1,0-1.77l4.58-7.91a1.67,1.67,0,0,1,.32-.33q-1.14-4.38-2.22-8.58l-11.28,11.38A2.35,2.35,0,0,0,118,142.93Z"/>
    <path class="cls-1" d="M97.49,137.66l9.29,37a4.47,4.47,0,0,0,3.11,3.21l35.1,10c-.31-1.36-.65-2.78-1-4.26l0-.13c-.36-1.47-.73-3-1.12-4.55h0l-25.45-6.73a5.58,5.58,0,0,1-3.95-3.93l-7.3-26.93a5.59,5.59,0,0,1,1.42-5.39l19.18-19.39h0c-.76-3.14-1.42-6-2-8.55L98.71,133.34A4.52,4.52,0,0,0,97.49,137.66Z"/>
    <path class="cls-1" d="M134.73,224l.15-.2c.27-.33.55-.68.85-1.08l.13-.18c.33-.43.66-.89,1-1.38L137,221c.27-.39.56-.81.84-1.24a12,12,0,0,1-3.09-1.14l-53.3-28.28a12.71,12.71,0,0,1-6.72-10.73l-2.22-60.42A12.71,12.71,0,0,1,78.4,108l51.08-32.14c.31-.2.63-.35,1-.52l.09-.17q.67-1.4,1.35-2.67l.12-.22c.48-.91,1-1.77,1.42-2.57l.09-.14c.38-.67.75-1.28,1.11-1.87.17-.29.34-.55.5-.82l.22-.35a11.29,11.29,0,0,0-2.52,1l-60.28,34.8a11.21,11.21,0,0,0-5.6,9.67l0,69.76a11.15,11.15,0,0,0,5.54,9.69L92.5,203.11c.58.2,1.19.4,1.77.57l38.41,22.7,1.23-1.44Z"/>
    <path class="cls-4" d="M149.12,175.24c-.76-3-1.58-6.2-2.43-9.46C147.54,169,148.36,172.21,149.12,175.24Z"/>
    <path class="cls-4" d="M140.85,227.5h0l.37-.49Z"/>
    <path class="cls-4" d="M131,102.52h0c0-.15,0-.29,0-.44C131,102.23,131,102.38,131,102.52Z"/>
    <path class="cls-4" d="M136.06,79.85c0,.1-.08.21-.13.31,0-.1.1-.21.14-.31Z"/>
    <path class="cls-4" d="M139.22,137.32h0c-.85-3.23-1.67-6.4-2.46-9.49Q138,132.46,139.22,137.32Z"/>
    <path class="cls-4" d="M145.56,200.77a2.6,2.6,0,0,0,0-.26c0,.09,0,.17-.05.25Z"/>
    <polygon class="cls-4" points="144.62 205.11 144.62 205.11 144.62 205.12 144.62 205.11"/>
    <path class="cls-4" d="M141.14,214.08c.1-.19.18-.41.28-.61-.1.21-.2.41-.31.61Z"/>
    <path class="cls-4" d="M137.82,219.75h0c-.28.43-.57.85-.84,1.24C137.25,220.58,137.53,220.19,137.82,219.75Z"/>
    <path class="cls-4" d="M145.67,191.42h0c0,.35.09.71.13,1.06C145.73,192.13,145.71,191.78,145.67,191.42Z"/>
  </g>
</svg>